# xmcd CD database file
#
# Track frame offsets:
#	150
#	17591
#	30811
#	43560
#	65749
#	80542
#	89904
#	112848
#	126137
#	136005
#	158032
#	174146
#
# Disc length: 2550 seconds
#
# Revision: 0
# Processed by: cddbd v1.5.1PL0 Copyright (c) Steve Scherf et al.
# Submitted via: CDex 1.51
#
DISCID=8909f40c
DTITLE=Liane EDWARDS - BRANDED
DYEAR=2004
DGENRE=Country
TTITLE0=Different Skies
TTITLE1=Take the lead
TTITLE2=Way down yonder
TTITLE3=The storm
TTITLE4=Baby i'm gone
TTITLE5=Attack Rabbit
TTITLE6=Branded
TTITLE7=Girl's night out
TTITLE8=The audition song
TTITLE9=I don't wanna know
TTITLE10=Catch me if you can
TTITLE11=Teach me lord
EXTD=YEAR: 2004
EXTT0=
EXTT1=
EXTT2=
EXTT3=
EXTT4=
EXTT5=
EXTT6=
EXTT7=
EXTT8=
EXTT9=
EXTT10=
EXTT11=
PLAYORDER=
